<svg id="visual" viewBox="0 0 900 600" width="900" height="600" xmlns="http://www.w3.org/2000/svg" xmlns:xlink="http://www.w3.org/1999/xlink" version="1.1"><rect x="0" y="0" width="900" height="600" fill="#002233"></rect><path d="M0 446L21.5 448.8C43 451.7 86 457.3 128.8 452C171.7 446.7 214.3 430.3 257.2 436.3C300 442.3 343 470.7 385.8 468.3C428.7 466 471.3 433 514.2 429.5C557 426 600 452 642.8 469.2C685.7 486.3 728.3 494.7 771.2 497.2C814 499.7 857 496.3 878.5 494.7L900 493L900 601L878.5 601C857 601 814 601 771.2 601C728.3 601 685.7 601 642.8 601C600 601 557 601 514.2 601C471.3 601 428.7 601 385.8 601C343 601 300 601 257.2 601C214.3 601 171.7 601 128.8 601C86 601 43 601 21.5 601L0 601Z" fill="#0066FF" stroke-linecap="round" stroke-linejoin="miter"></path></svg>